<!DOCTYPE svg PUBLIC "-//W3C//DTD SVG 20010904//EN" "http://www.w3.org/TR/2001/REC-SVG-20010904/DTD/svg10.dtd">
<svg version="1.0" xmlns="http://www.w3.org/2000/svg" width="546px" height="146px" viewBox="0 0 5460 1460" preserveAspectRatio="xMidYMid meet">
<g id="layer101" fill="#342d71" stroke="none">
 <path d="M560 1010 l0 -420 42 0 c24 0 49 7 59 16 16 14 21 13 59 -6 29 -15 61 -22 104 -22 122 0 200 41 251 133 28 51 30 60 30 164 0 104 -2 113 -30 164 -36 65 -88 106 -164 127 -53 16 -132 15 -173 -1 -17 -7 -18 3 -18 129 l0 136 -80 0 -80 0 0 -420z m342 -9 c105 -117 20 -317 -119 -279 -63 17 -63 18 -63 160 l0 129 33 15 c51 23 116 12 149 -25z"/>
 <path d="M3080 1070 l0 -360 -65 0 c-36 0 -65 -4 -65 -9 0 -5 10 -34 21 -65 l22 -56 43 0 44 0 0 -47 c1 -122 88 -203 217 -203 43 0 123 26 123 40 0 4 -10 31 -21 59 l-22 51 -47 -6 c-43 -6 -49 -4 -68 21 -12 15 -22 41 -22 56 0 28 1 29 53 29 l52 0 23 58 c12 32 22 61 22 65 0 4 -34 7 -75 7 l-75 0 0 360 0 360 -80 0 -80 0 0 -360z"/>
 <path d="M3564 1179 c-59 -17 -126 -71 -158 -128 -41 -75 -49 -197 -17 -282 55 -145 227 -215 401 -163 74 22 152 100 174 174 50 167 -20 337 -160 389 -59 23 -181 27 -240 10z m176 -146 c42 -24 70 -82 70 -142 0 -126 -109 -200 -205 -141 -91 56 -92 225 -2 280 39 24 99 26 137 3z"/>
 <path d="M130 1165 c-81 -23 -102 -39 -90 -70 24 -62 41 -87 58 -80 65 25 134 35 171 25 78 -21 54 -72 -52 -110 -150 -55 -205 -125 -178 -226 13 -47 51 -87 105 -109 56 -24 168 -22 236 4 84 32 82 30 55 89 -13 29 -28 52 -33 52 -5 0 -29 -7 -52 -15 -61 -21 -123 -20 -144 4 -10 11 -15 24 -12 29 3 6 41 25 84 42 144 60 192 110 192 201 0 69 -27 113 -88 147 -56 31 -173 39 -252 17z"/>
 <path d="M4060 890 l0 -290 45 0 c40 0 46 3 61 33 29 58 30 58 92 21 60 -37 122 -58 133 -46 8 8 29 94 29 116 0 9 -9 16 -20 16 -23 0 -109 42 -152 73 l-28 21 0 173 0 173 -80 0 -80 0 0 -290z"/>
 <path d="M4490 890 l0 -290 54 0 c50 0 54 2 66 29 l12 29 60 -31 c102 -53 252 -48 288 10 12 18 15 17 73 -12 49 -24 77 -31 137 -33 90 -4 134 15 165 68 18 32 20 55 23 278 l3 242 -80 0 -80 0 -3 -209 c-3 -192 -5 -211 -23 -231 -25 -28 -68 -22 -131 17 l-44 28 0 198 0 197 -80 0 -80 0 0 -204 c0 -193 -1 -205 -22 -231 -18 -23 -26 -26 -55 -22 -19 3 -54 19 -79 34 l-44 28 0 198 0 197 -80 0 -80 0 0 -290z"/>
 <path d="M1200 880 l0 -290 43 0 c41 0 44 2 65 45 l22 46 33 -25 c41 -31 115 -65 143 -66 17 0 24 9 33 48 7 26 14 54 16 62 4 12 -7 19 -38 27 -23 6 -68 29 -100 49 l-57 38 0 178 0 178 -80 0 -80 0 0 -290z"/>
 <path d="M1620 880 l0 -290 80 0 80 0 0 290 0 290 -80 0 -80 0 0 -290z"/>
 <path d="M1900 880 l0 -290 56 0 c52 0 56 2 66 28 l11 27 70 -35 c61 -30 79 -35 146 -35 97 0 136 20 171 90 24 48 25 58 28 278 l4 227 -81 0 -81 0 0 -179 c0 -98 -3 -192 -6 -209 -16 -78 -82 -94 -171 -40 l-53 32 0 198 0 198 -80 0 -80 0 0 -290z"/>
 <path d="M2751 1145 c-24 -7 -57 -26 -73 -42 -51 -47 -58 -77 -58 -242 l0 -150 -46 -3 c-45 -3 -46 -4 -65 -53 -28 -74 -28 -75 46 -75 l65 0 0 -260 0 -260 80 0 80 0 0 260 0 260 75 0 c42 0 75 4 75 10 0 5 -11 34 -24 65 l-25 55 -50 0 -51 0 0 130 c0 127 1 132 26 157 25 25 47 27 94 8 12 -4 21 9 37 54 25 67 22 72 -42 90 -51 14 -89 13 -144 -4z"/>
 <path d="M1646 498 c-23 -19 -29 -33 -30 -67 -1 -35 4 -47 27 -67 62 -53 147 -15 147 64 0 53 -25 82 -76 89 -33 4 -45 1 -68 -19z"/>
 </g>

</svg>